<?xml version="1.0" encoding="UTF-8" standalone="no"?>
<svg
   width="1920"
   height="1080"
   viewBox="0 0 1920 1080"
   version="1.1"
   id="svg1"
   sodipodi:docname="face.svg"
   inkscape:version="1.4.2 (ebf0e940d0, 2025-05-08)"
   xmlns:inkscape="http://www.inkscape.org/namespaces/inkscape"
   xmlns:sodipodi="http://sodipodi.sourceforge.net/DTD/sodipodi-0.dtd"
   xmlns="http://www.w3.org/2000/svg"
   xmlns:svg="http://www.w3.org/2000/svg"
   xmlns:rdf="http://www.w3.org/1999/02/22-rdf-syntax-ns#"
   xmlns:cc="http://creativecommons.org/ns#">
  <sodipodi:namedview
     id="namedview1"
     pagecolor="#ffffff"
     bordercolor="#666666"
     borderopacity="1.0"
     inkscape:showpageshadow="2"
     inkscape:pageopacity="0.0"
     inkscape:pagecheckerboard="0"
     inkscape:deskcolor="#d1d1d1"
     inkscape:zoom="1.79375"
     inkscape:cx="730.59233"
     inkscape:cy="623.27526"
     inkscape:window-width="1876"
     inkscape:window-height="988"
     inkscape:window-x="0"
     inkscape:window-y="0"
     inkscape:window-maximized="1"
     inkscape:current-layer="open" />
  <defs
     id="defs1">
    <clipPath
       clipPathUnits="userSpaceOnUse"
       id="clipPath5">
      <path
         id="path5"
         style="display:inline;fill:#ffffff;stroke-width:88.5966;stroke-linecap:square;stroke-miterlimit:1.5;paint-order:fill markers stroke"
         d="m 586.90567,606.51538 c -9.34747,11.41994 -13.01041,18.33198 -13.89092,32.01246 -0.88004,13.68079 2.57411,28.44519 11.42772,36.79193 8.85546,8.34689 21.32831,13.39108 32.86777,14.56005 11.54077,1.16935 23.5579,2.51704 39.61817,-0.63154 16.05967,-3.13821 38.95136,-26.79719 44.1025,-43.56777 5.15206,-16.77178 0.87021,-24.67876 -12.54985,-36.11373 -13.42128,-11.4348 -42.77051,-19.15355 -62.71111,-17.50731 -19.94068,1.64593 -29.51927,3.03694 -38.86635,14.45664 z" />
    </clipPath>
    <clipPath
       clipPathUnits="userSpaceOnUse"
       id="clipPath7">
      <path
         id="path8"
         style="display:inline;fill:#ffffff;stroke-width:90.1217;stroke-linecap:square;stroke-miterlimit:1.5;paint-order:fill markers stroke"
         d="m 808.80069,674.35906 c 9.65957,7.83576 21.42878,10.10268 36.47292,11.32985 15.04443,1.21962 45.77988,1.3005 61.56884,-16.26784 15.78896,-17.56834 12.94375,-40.39081 6.39687,-52.55543 -6.5511,-12.16662 -19.75667,-21.05411 -37.48907,-25.14004 -17.73519,-4.08608 -46.95483,1.81559 -61.45276,10.92607 -14.49814,9.11046 -21.79017,18.94873 -21.52476,32.00313 0.26117,13.0529 6.37305,31.87004 16.03263,39.70554 z"
         sodipodi:nodetypes="cczccsccc" />
    </clipPath>
  </defs>
  <g
     id="layer1">
    <path
       id="path12860-1-3"
       style="display:inline;fill:#fcaa73;stroke-width:78.6043;stroke-linecap:square;stroke-linejoin:round;stroke-miterlimit:1.5;paint-order:stroke fill markers"
       d="m 768.94991,695.0057 c -1.68531,4.34169 -41.80738,3.75454 -44.27766,-1.313 -2.47207,-5.06839 19.17278,-38.72203 23.5629,-38.56159 4.38993,0.16023 22.40009,35.53451 20.7147,39.876 z" />
    <g
       id="eyes">
      <path
         id="rect29546"
         style="display:inline;fill:#000000;fill-opacity:1;stroke-width:118.565;stroke-linecap:square;stroke-miterlimit:1.5;paint-order:fill markers stroke"
         d="m 833.6007,584.60999 c -14.35756,3.33741 -21.82696,2.88702 -49.62906,17.35037 -27.8021,14.46335 -39.0129,14.79884 -70.67782,0.57284 -31.66491,-14.226 -90.44901,-31.47134 -120.0581,-18.67137 -29.60911,12.80049 -33.71229,41.25198 -32.79139,63.15635 0.92348,21.90402 15.12856,41.99822 38.63917,48.44565 23.51086,6.44668 46.19684,9.39533 66.8806,0.95137 20.68419,-8.44392 29.63374,-18.74416 41.2273,-35.26827 11.59271,-16.52442 23.9009,-28.74466 41.26653,-29.21675 17.3659,-0.46274 30.02732,19.08551 37.5154,32.0078 7.4881,12.9218 22.12601,26.51166 37.8566,29.83759 15.73073,3.32745 64.35085,11.13556 89.92275,-16.59894 25.5719,-27.7345 17.87527,-65.82251 2.30899,-79.14475 -15.56632,-13.32149 -30.16666,-14.41716 -39.05155,-15.49389 -8.88549,-1.06668 -29.04998,-1.26959 -43.40882,2.06774 z"
         sodipodi:nodetypes="csscccccccczcccc" />
      <g
         id="open"
         style="display:inline">
        <path
           id="path35304"
           style="display:inline;fill:#ffffff;stroke-width:88.5969;stroke-linecap:square;stroke-miterlimit:1.5;paint-order:fill markers stroke"
           d="m 586.90565,606.51541 c -9.34748,11.41992 -13.01047,18.33197 -13.89091,32.0125 -0.88046,13.68078 2.57432,28.44513 11.42765,36.79188 8.85548,8.34688 21.32834,13.39104 32.86783,14.56013 11.54077,1.16916 23.55785,2.5171 39.61816,-0.63396 16.05961,-3.13849 38.95137,-26.79726 44.10247,-43.56783 5.15178,-16.77179 0.86988,-24.67869 -12.54978,-36.11369 -13.42139,-11.43485 -42.7706,-19.15358 -62.71121,-17.50734 -19.94061,1.64623 -29.51924,3.03672 -38.86629,14.45667 z" />
        <path
           id="path35306"
           style="display:inline;fill:#ffffff;stroke-width:90.1217;stroke-linecap:square;stroke-miterlimit:1.5;paint-order:fill markers stroke"
           d="m 808.80069,674.35906 c 9.65957,7.83576 21.42878,10.10268 36.47292,11.32985 15.04443,1.21962 45.77988,1.3005 61.56884,-16.26784 15.78896,-17.56834 12.94375,-40.39081 6.39687,-52.55543 -6.5511,-12.16662 -19.75667,-21.05411 -37.48907,-25.14004 -17.73519,-4.08608 -46.95483,1.81559 -61.45276,10.92607 -14.49814,9.11046 -21.79017,18.94873 -21.52476,32.00313 0.26117,13.0529 6.37305,31.87004 16.03263,39.70554 z"
           sodipodi:nodetypes="cczccsccc" />
        <g
           id="right-eye"
           class="pupil"
           clip-path="url(#clipPath5)">
          <path
             id="path35360"
             style="fill:#d99dd9;fill-opacity:1;stroke-width:86.2918;stroke-linecap:square;stroke-linejoin:round;stroke-miterlimit:1.5;paint-order:stroke fill markers"
             d="m 686.04779,655.14183 c -5.34259,7.40572 -12.79358,13.5783 -21.00502,17.25559 -8.21144,3.67745 -17.60069,5.15639 -26.48055,4.12074 -8.87985,-1.03565 -17.69189,-4.64807 -24.86066,-10.11866 -7.16862,-5.47106 -13.04279,-13.2057 -16.57943,-21.64652 -3.53688,-8.44082 -4.89838,-18.22549 -3.85595,-27.37433 1.04243,-9.14883 4.55898,-18.3617 9.90111,-25.76702 5.3426,-7.40572 12.79359,-13.5783 21.00495,-17.25559 8.21136,-3.67745 17.60069,-5.15639 26.48055,-4.12074 8.87985,1.03565 17.69188,4.64807 24.86074,10.11865 7.16862,5.47107 13.04279,13.20571 16.57943,21.64653 3.53687,8.44082 4.89838,18.22541 3.85594,27.37424 -1.04243,9.14884 -4.5582,18.36178 -9.90111,25.76711 z"
             mask="none"
             class="right-pupil pupil" />
          <path
             id="path35466"
             style="fill:#333333;fill-opacity:1;stroke-width:74.1731;stroke-linecap:square;stroke-linejoin:round;stroke-miterlimit:1.5;paint-order:stroke fill markers"
             d="m 672.07501,645.24994 c -3.5139,4.71727 -8.37329,8.61699 -13.69941,10.90204 -5.32589,2.28497 -11.38935,3.14006 -17.10033,2.38192 -5.71091,-0.75814 -11.35372,-3.17767 -15.91942,-6.77717 -4.56546,-3.5987 -8.27608,-8.64422 -10.47277,-14.11954 -2.19701,-5.4754 -2.98065,-11.79442 -2.22023,-17.6788 0.76042,-5.88447 3.11404,-11.78453 6.62794,-16.50131 3.5139,-4.71726 8.37337,-8.61691 13.69941,-10.90196 5.32589,-2.28496 11.38935,-3.14006 17.10042,-2.38192 5.7109,0.75814 11.35371,3.17767 15.91941,6.77717 4.56546,3.5987 8.276,8.64422 10.4727,14.11954 2.197,5.4754 2.98065,11.79442 2.22023,17.67889 -0.76042,5.88446 -3.11404,11.78436 -6.62795,16.50114 z"
             mask="none"
             class="right-pupil pupil" />
        </g>
        <g
           id="left-eye"
           clip-path="url(#clipPath7)"
           style="display:inline">
          <path
             id="path35475"
             style="fill:#d99dd9;fill-opacity:1;stroke-width:83.9468;stroke-linecap:square;stroke-linejoin:round;stroke-miterlimit:1.5;paint-order:stroke fill markers"
             d="m 890.394,652.58448 c -5.15637,7.266 -12.31947,13.34486 -20.24289,16.95327 -7.92342,3.60824 -16.94714,5.0663 -25.51437,4.05217 -8.56723,-1.01413 -17.03433,-4.56902 -23.94933,-9.93507 -6.9147,-5.36575 -12.55769,-12.97923 -15.96714,-21.25999 -3.40952,-8.28077 -4.71463,-17.91231 -3.70673,-26.88841 1.00789,-8.9761 4.39131,-18.04593 9.54723,-25.31193 5.15637,-7.266 12.3194,-13.34485 20.24282,-16.95326 7.92342,-3.60825 16.94714,-5.0663 25.51437,-4.05217 8.56723,1.01413 17.03441,4.56901 23.94941,9.93507 6.9147,5.36575 12.55768,12.9793 15.96713,21.25999 3.40953,8.28069 4.71464,17.91223 3.70674,26.88833 -1.0079,8.9761 -4.39131,18.04601 -9.54724,25.312 z"
             mask="none"
             class="left-pupil pupil" />
          <path
             id="path35477"
             style="fill:#333333;fill-opacity:1;stroke-width:69.9159;stroke-linecap:square;stroke-linejoin:round;stroke-miterlimit:1.5;paint-order:stroke fill markers"
             d="m 874.96131,642.41829 c -3.28624,4.48388 -7.81256,8.2057 -12.79217,10.3784 -4.97916,2.17292 -10.62572,2.98969 -15.96456,2.26978 -5.33935,-0.71913 -10.59209,-3.02728 -14.85927,-6.44727 -4.26741,-3.42 -7.72073,-8.23209 -9.77259,-13.43674 -2.05164,-5.20457 -2.77916,-11.23165 -2.06741,-16.82558 0.71026,-5.59369 2.90573,-11.22202 6.19197,-15.70628 3.28623,-4.48466 7.81241,-8.2057 12.79202,-10.37839 4.97915,-2.17293 10.62579,-2.98969 15.96455,-2.26978 5.33936,0.71912 10.59224,3.02727 14.85936,6.44727 4.2674,3.41999 7.72072,8.23208 9.77251,13.43665 2.05164,5.20458 2.77916,11.23173 2.06741,16.82567 -0.71026,5.59369 -2.90573,11.22193 -6.19197,15.70627 z"
             mask="none"
             class="left-pupil pupil" />
        </g>
      </g>
      <g
         id="close"
         style="display:none">
        <path
           id="rect7"
           style="display:inline;fill:none;stroke:#ffffff;stroke-width:13.2123;stroke-linecap:round;stroke-linejoin:round;stroke-dasharray:none"
           d="m 585.77842,641.69481 c 0,0 23.57204,-11.6575 52.64117,-11.42348 29.06903,0.23653 53.95008,11.20141 53.95008,11.20141" />
        <path
           id="path8-9"
           style="display:inline;fill:none;stroke:#ffffff;stroke-width:13.2123;stroke-linecap:round;stroke-linejoin:round;stroke-dasharray:none"
           d="m 803.56069,640.95741 c 0,0 19.51195,-14.48177 48.38933,-16.10009 28.87781,-1.61829 54.23235,7.49474 54.23235,7.49474" />
      </g>
      <g
         id="close-flip"
         style="display:none">
        <path
           id="path1"
           style="display:inline;fill:none;stroke:#ffffff;stroke-width:13.2123;stroke-linecap:round;stroke-linejoin:round;stroke-dasharray:none"
           d="m 586.76217,637.56291 c 0,0 24.06116,13.13986 53.13029,13.37388 29.06903,0.23653 50.89617,-12.41727 50.89617,-12.41727"
           sodipodi:nodetypes="ccc" />
        <path
           id="path2"
           style="display:inline;fill:none;stroke:#ffffff;stroke-width:13.2123;stroke-linecap:round;stroke-linejoin:round;stroke-dasharray:none"
           d="m 802.18345,636.13689 c 0,0 22.66563,14.05251 51.5428,12.43418 28.87781,-1.6183 51.76744,-15.52897 51.76744,-15.52897"
           sodipodi:nodetypes="csc" />
      </g>
    </g>
    <path
       id="path12882-3-2"
       style="display:inline;fill:#f0eb52;fill-opacity:1;stroke-width:118.24;stroke-linecap:square;stroke-miterlimit:1.5;paint-order:fill markers stroke"
       d="m 788.98304,545.00012 c 9.77729,24.49814 128.71069,-4.1186 125.3641,-11.53047 -3.34232,-7.41348 -135.14133,-12.96344 -125.3641,11.53047 z" />
    <path
       id="path12884-6-3"
       style="display:inline;fill:#f0eb52;fill-opacity:1;stroke-width:120.126;stroke-linecap:square;stroke-miterlimit:1.5;paint-order:fill markers stroke"
       d="m 706.5591,546.11797 c -8.66729,21.37054 -135.47214,-5.68373 -133.2926,-14.12451 2.18553,-8.44468 141.95758,-7.23959 133.2926,14.12451 z" />
    <path
       id="rect25600-7"
       style="display:inline;fill:none;stroke:#fcaa73;stroke-width:11.2728;stroke-linecap:round;stroke-linejoin:round;stroke-miterlimit:1.5;stroke-dasharray:none;stroke-opacity:1;paint-order:fill markers stroke"
       d="m 805.93362,727.02898 -58.52758,21.00511 -57.33231,-20.39815" />
  </g>
  <metadata
     id="metadata1">
    <rdf:RDF>
      <cc:Work
         rdf:about="">
        <cc:license
           rdf:resource="http://creativecommons.org/licenses/by-nc/4.0/" />
      </cc:Work>
      <cc:License
         rdf:about="http://creativecommons.org/licenses/by-nc/4.0/">
        <cc:permits
           rdf:resource="http://creativecommons.org/ns#Reproduction" />
        <cc:permits
           rdf:resource="http://creativecommons.org/ns#Distribution" />
        <cc:requires
           rdf:resource="http://creativecommons.org/ns#Notice" />
        <cc:requires
           rdf:resource="http://creativecommons.org/ns#Attribution" />
        <cc:prohibits
           rdf:resource="http://creativecommons.org/ns#CommercialUse" />
        <cc:permits
           rdf:resource="http://creativecommons.org/ns#DerivativeWorks" />
      </cc:License>
    </rdf:RDF>
  </metadata>
</svg>
