<?xml version="1.0" encoding="UTF-8" standalone="no"?>
<!-- Created with Inkscape (http://www.inkscape.org/) -->

<svg
   width="1080"
   height="1080"
   viewBox="0 0 285.74999 285.75"
   version="1.1"
   id="main_cloud"
   inkscape:version="1.1.2 (0a00cf5339, 2022-02-04)"
   sodipodi:docname="cloud.svg"
   xmlns:inkscape="http://www.inkscape.org/namespaces/inkscape"
   xmlns:sodipodi="http://sodipodi.sourceforge.net/DTD/sodipodi-0.dtd"
   xmlns:xlink="http://www.w3.org/1999/xlink"
   xmlns="http://www.w3.org/2000/svg"
   xmlns:svg="http://www.w3.org/2000/svg">
  <sodipodi:namedview
     id="namedview7"
     pagecolor="#ffffff"
     bordercolor="#666666"
     borderopacity="1.0"
     inkscape:pageshadow="2"
     inkscape:pageopacity="0.0"
     inkscape:pagecheckerboard="0"
     inkscape:document-units="px"
     showgrid="false"
     units="px"
     inkscape:zoom="0.25"
     inkscape:cx="746"
     inkscape:cy="750"
     inkscape:window-width="1920"
     inkscape:window-height="1011"
     inkscape:window-x="0"
     inkscape:window-y="32"
     inkscape:window-maximized="1"
     inkscape:current-layer="layer1" />
  <defs
     id="defs2">
    <linearGradient
       inkscape:collect="always"
       id="linearGradient2985">
      <stop
         style="stop-color:#42aec0;stop-opacity:1"
         offset="0"
         id="stop2981" />
      <stop
         style="stop-color:#464ca8;stop-opacity:1"
         offset="1"
         id="stop2983" />
    </linearGradient>
    <linearGradient
       id="linearGradient1181"
       inkscape:swatch="solid">
      <stop
         style="stop-color:#ffffff;stop-opacity:1;"
         offset="0"
         id="stop1179" />
    </linearGradient>
    <linearGradient
       inkscape:collect="always"
       xlink:href="#linearGradient2985"
       id="linearGradient2987"
       x1="193.01562"
       y1="540"
       x2="974.5332"
       y2="540"
       gradientUnits="userSpaceOnUse"
       gradientTransform="matrix(0.36563556,0,0,0.36559488,-70.573724,-54.546224)" />
  </defs>
  <g
     inkscape:label="圖層 1"
     inkscape:groupmode="layer"
     id="layer1">
    <path
       id="path2482"
       style="fill:#ffffff;stroke:url(#linearGradient2987);stroke-width:14.6245;stroke-linecap:round;stroke-linejoin:round;stroke-miterlimit:1.4;stroke-dasharray:none;stroke-opacity:1"
       d="M 126.86948,68.592128 A 74.291459,74.283196 0 0 0 52.578329,142.875 a 74.291459,74.283196 0 0 0 0.0056,0.16209 37.475563,37.471395 0 0 0 -7.796176,-0.82186 37.475563,37.471395 0 0 0 -37.4755029,37.47133 37.475563,37.471395 0 0 0 37.0155999,37.4192 v 0.0514 h 0.453474 a 37.475563,37.471395 0 0 0 0.0065,7.3e-4 37.475563,37.471395 0 0 0 0.0064,-7.3e-4 h 82.067346 a 74.291459,74.283196 0 0 0 0.008,7.3e-4 74.291459,74.283196 0 0 0 0.008,-7.3e-4 h 91.56384 v -0.0244 a 59.749742,59.743096 0 0 0 0.24638,0.025 59.749742,59.743096 0 0 0 59.74998,-59.74265 59.749742,59.743096 0 0 0 -59.74998,-59.743341 59.749742,59.743096 0 0 0 -28.07467,7.052681 74.291459,74.283196 0 0 0 -63.7434,-36.132461 z" />
  </g>
</svg>
